{
    "asset" : {
        "generator" : "Khronos glTF Blender I/O v1.2.75",
        "version" : "2.0"
    },
    "scene" : 0,
    "scenes" : [
        {
            "name" : "Scene",
            "nodes" : [
                0
            ]
        }
    ],
    "nodes" : [
        {
            "mesh" : 0,
            "name" : "chair-seat.001",
            "scale" : [
                249.99998474121094,
                1,
                249.99998474121094
            ],
            "translation" : [
                0.006339356303215027,
                0.5593520402908325,
                0.0031485557556152344
            ]
        }
    ],
    "materials" : [
        {
            "doubleSided" : true,
            "emissiveFactor" : [
                0,
                0,
                0
            ],
            "name" : "black-metal-material",
            "pbrMetallicRoughness" : {
                "baseColorFactor" : [
                    0,
                    0,
                    0,
                    1
                ],
                "metallicFactor" : 0,
                "roughnessFactor" : 1
            }
        },
        {
            "doubleSided" : true,
            "emissiveFactor" : [
                0,
                0,
                0
            ],
            "name" : "black-metal-material.001",
            "pbrMetallicRoughness" : {
                "baseColorFactor" : [
                    0,
                    0,
                    0,
                    1
                ],
                "metallicFactor" : 0,
                "roughnessFactor" : 1
            }
        }
    ],
    "meshes" : [
        {
            "name" : "Plane.015",
            "primitives" : [
                {
                    "attributes" : {
                        "POSITION" : 0,
                        "NORMAL" : 1,
                        "TEXCOORD_0" : 2
                    },
                    "indices" : 3,
                    "material" : 0
                },
                {
                    "attributes" : {
                        "POSITION" : 4,
                        "NORMAL" : 5,
                        "TEXCOORD_0" : 6
                    },
                    "indices" : 7,
                    "material" : 1
                }
            ]
        }
    ],
    "accessors" : [
        {
            "bufferView" : 0,
            "componentType" : 5126,
            "count" : 7958,
            "max" : [
                0.0012835296802222729,
                0.7785704731941223,
                0.0009856537217274308
            ],
            "min" : [
                -0.0012835299130529165,
                -0.30237388610839844,
                -0.0015269046416506171
            ],
            "type" : "VEC3"
        },
        {
            "bufferView" : 1,
            "componentType" : 5126,
            "count" : 7958,
            "type" : "VEC3"
        },
        {
            "bufferView" : 2,
            "componentType" : 5126,
            "count" : 7958,
            "type" : "VEC2"
        },
        {
            "bufferView" : 3,
            "componentType" : 5123,
            "count" : 12024,
            "type" : "SCALAR"
        },
        {
            "bufferView" : 4,
            "componentType" : 5126,
            "count" : 1104,
            "max" : [
                0.0016455331351608038,
                -0.2646855413913727,
                0.0011868909932672977
            ],
            "min" : [
                -0.0009488546056672931,
                -0.4421292543411255,
                -0.0017912274925038218
            ],
            "type" : "VEC3"
        },
        {
            "bufferView" : 5,
            "componentType" : 5126,
            "count" : 1104,
            "type" : "VEC3"
        },
        {
            "bufferView" : 6,
            "componentType" : 5126,
            "count" : 1104,
            "type" : "VEC2"
        },
        {
            "bufferView" : 7,
            "componentType" : 5123,
            "count" : 2052,
            "type" : "SCALAR"
        }
    ],
    "bufferViews" : [
        {
            "buffer" : 0,
            "byteLength" : 95496,
            "byteOffset" : 0
        },
        {
            "buffer" : 0,
            "byteLength" : 95496,
            "byteOffset" : 95496
        },
        {
            "buffer" : 0,
            "byteLength" : 63664,
            "byteOffset" : 190992
        },
        {
            "buffer" : 0,
            "byteLength" : 24048,
            "byteOffset" : 254656
        },
        {
            "buffer" : 0,
            "byteLength" : 13248,
            "byteOffset" : 278704
        },
        {
            "buffer" : 0,
            "byteLength" : 13248,
            "byteOffset" : 291952
        },
        {
            "buffer" : 0,
            "byteLength" : 8832,
            "byteOffset" : 305200
        },
        {
            "buffer" : 0,
            "byteLength" : 4104,
            "byteOffset" : 314032
        }
    ],
    "buffers" : [
        {
            "byteLength" : 318136,
            "uri" : "data:application/octet-stream;base64,"
        }
    ]
}
