{
    "asset" : {
        "generator" : "Khronos glTF Blender I/O v1.2.75",
        "version" : "2.0"
    },
    "scene" : 0,
    "scenes" : [
        {
            "name" : "Scene",
            "nodes" : [
                0,
                1
            ]
        }
    ],
    "nodes" : [
        {
            "mesh" : 0,
            "name" : "cup-body",
            "rotation" : [
                0,
                -0.9138830304145813,
                0,
                0.40597763657569885
            ],
            "scale" : [
                1.0027382373809814,
                1.0027382373809814,
                1.0027382373809814
            ],
            "translation" : [
                0,
                0.041457757353782654,
                0
            ]
        },
        {
            "mesh" : 1,
            "name" : "occupied",
            "scale" : [
                -0.09027867764234543,
                -0.09027867764234543,
                -0.09027867764234543
            ]
        }
    ],
    "materials" : [
        {
            "doubleSided" : true,
            "emissiveFactor" : [
                0,
                0,
                0
            ],
            "name" : "white-plastic.002",
            "pbrMetallicRoughness" : {
                "baseColorFactor" : [
                    0.6981933116912842,
                    0.6981933116912842,
                    0.6981933116912842,
                    1
                ],
                "metallicFactor" : 0,
                "roughnessFactor" : 0.5578947067260742
            }
        }
    ],
    "meshes" : [
        {
            "name" : "Cylinder.013",
            "primitives" : [
                {
                    "attributes" : {
                        "POSITION" : 0,
                        "NORMAL" : 1,
                        "TEXCOORD_0" : 2
                    },
                    "indices" : 3,
                    "material" : 0
                }
            ]
        },
        {
            "name" : "Plane.015",
            "primitives" : [
                {
                    "attributes" : {
                        "POSITION" : 4,
                        "NORMAL" : 5,
                        "TEXCOORD_0" : 6
                    },
                    "indices" : 7
                }
            ]
        }
    ],
    "accessors" : [
        {
            "bufferView" : 0,
            "componentType" : 5126,
            "count" : 1356,
            "max" : [
                0.052000001072883606,
                0.056122519075870514,
                0.052000001072883606
            ],
            "min" : [
                -0.09304779022932053,
                -0.04100000113248825,
                -0.052000001072883606
            ],
            "type" : "VEC3"
        },
        {
            "bufferView" : 1,
            "componentType" : 5126,
            "count" : 1356,
            "type" : "VEC3"
        },
        {
            "bufferView" : 2,
            "componentType" : 5126,
            "count" : 1356,
            "type" : "VEC2"
        },
        {
            "bufferView" : 3,
            "componentType" : 5123,
            "count" : 2100,
            "type" : "SCALAR"
        },
        {
            "bufferView" : 4,
            "componentType" : 5126,
            "count" : 4,
            "max" : [
                1,
                0,
                1
            ],
            "min" : [
                -1,
                0,
                -1
            ],
            "type" : "VEC3"
        },
        {
            "bufferView" : 5,
            "componentType" : 5126,
            "count" : 4,
            "type" : "VEC3"
        },
        {
            "bufferView" : 6,
            "componentType" : 5126,
            "count" : 4,
            "type" : "VEC2"
        },
        {
            "bufferView" : 7,
            "componentType" : 5123,
            "count" : 6,
            "type" : "SCALAR"
        }
    ],
    "bufferViews" : [
        {
            "buffer" : 0,
            "byteLength" : 16272,
            "byteOffset" : 0
        },
        {
            "buffer" : 0,
            "byteLength" : 16272,
            "byteOffset" : 16272
        },
        {
            "buffer" : 0,
            "byteLength" : 10848,
            "byteOffset" : 32544
        },
        {
            "buffer" : 0,
            "byteLength" : 4200,
            "byteOffset" : 43392
        },
        {
            "buffer" : 0,
            "byteLength" : 48,
            "byteOffset" : 47592
        },
        {
            "buffer" : 0,
            "byteLength" : 48,
            "byteOffset" : 47640
        },
        {
            "buffer" : 0,
            "byteLength" : 32,
            "byteOffset" : 47688
        },
        {
            "buffer" : 0,
            "byteLength" : 12,
            "byteOffset" : 47720
        }
    ],
    "buffers" : [
        {
            "byteLength" : 47732,
            "uri" : "data:application/octet-stream;base64,"
        }
    ]
}
