{
    "asset" : {
        "generator" : "Khronos glTF Blender I/O v1.2.75",
        "version" : "2.0"
    },
    "scene" : 0,
    "scenes" : [
        {
            "name" : "Scene",
            "nodes" : [
                0,
                1
            ]
        }
    ],
    "nodes" : [
        {
            "mesh" : 0,
            "name" : "chair-body",
            "rotation" : [
                0.7071068286895752,
                0,
                0,
                0.7071067094802856
            ]
        },
        {
            "mesh" : 1,
            "name" : "occupied",
            "scale" : [
                0.2885975241661072,
                0.2885975241661072,
                0.2885975241661072
            ]
        }
    ],
    "materials" : [
        {
            "doubleSided" : true,
            "emissiveFactor" : [
                0,
                0,
                0
            ],
            "name" : "dark-green-plastic",
            "pbrMetallicRoughness" : {
                "baseColorFactor" : [
                    0.06301002949476242,
                    0.13286834955215454,
                    0.061246056109666824,
                    1
                ],
                "metallicFactor" : 0,
                "roughnessFactor" : 1
            }
        },
        {
            "doubleSided" : true,
            "emissiveFactor" : [
                0,
                0,
                0
            ],
            "name" : "transparent.001",
            "pbrMetallicRoughness" : {
                "baseColorFactor" : [
                    0.800000011920929,
                    0.800000011920929,
                    0.800000011920929,
                    0
                ],
                "metallicFactor" : 0,
                "roughnessFactor" : 0.5
            }
        }
    ],
    "meshes" : [
        {
            "name" : "dining_chair_01",
            "primitives" : [
                {
                    "attributes" : {
                        "POSITION" : 0,
                        "NORMAL" : 1,
                        "TEXCOORD_0" : 2
                    },
                    "indices" : 3,
                    "material" : 0
                }
            ]
        },
        {
            "name" : "Plane.022",
            "primitives" : [
                {
                    "attributes" : {
                        "POSITION" : 4,
                        "NORMAL" : 5,
                        "TEXCOORD_0" : 6
                    },
                    "indices" : 7,
                    "material" : 1
                }
            ]
        }
    ],
    "accessors" : [
        {
            "bufferView" : 0,
            "componentType" : 5126,
            "count" : 2926,
            "max" : [
                0.25013700127601624,
                0.21424700319766998,
                0
            ],
            "min" : [
                -0.25013700127601624,
                -0.31415799260139465,
                -0.9999120235443115
            ],
            "type" : "VEC3"
        },
        {
            "bufferView" : 1,
            "componentType" : 5126,
            "count" : 2926,
            "type" : "VEC3"
        },
        {
            "bufferView" : 2,
            "componentType" : 5126,
            "count" : 2926,
            "type" : "VEC2"
        },
        {
            "bufferView" : 3,
            "componentType" : 5123,
            "count" : 11076,
            "type" : "SCALAR"
        },
        {
            "bufferView" : 4,
            "componentType" : 5126,
            "count" : 4,
            "max" : [
                1,
                0,
                1
            ],
            "min" : [
                -1,
                0,
                -1
            ],
            "type" : "VEC3"
        },
        {
            "bufferView" : 5,
            "componentType" : 5126,
            "count" : 4,
            "type" : "VEC3"
        },
        {
            "bufferView" : 6,
            "componentType" : 5126,
            "count" : 4,
            "type" : "VEC2"
        },
        {
            "bufferView" : 7,
            "componentType" : 5123,
            "count" : 6,
            "type" : "SCALAR"
        }
    ],
    "bufferViews" : [
        {
            "buffer" : 0,
            "byteLength" : 35112,
            "byteOffset" : 0
        },
        {
            "buffer" : 0,
            "byteLength" : 35112,
            "byteOffset" : 35112
        },
        {
            "buffer" : 0,
            "byteLength" : 23408,
            "byteOffset" : 70224
        },
        {
            "buffer" : 0,
            "byteLength" : 22152,
            "byteOffset" : 93632
        },
        {
            "buffer" : 0,
            "byteLength" : 48,
            "byteOffset" : 115784
        },
        {
            "buffer" : 0,
            "byteLength" : 48,
            "byteOffset" : 115832
        },
        {
            "buffer" : 0,
            "byteLength" : 32,
            "byteOffset" : 115880
        },
        {
            "buffer" : 0,
            "byteLength" : 12,
            "byteOffset" : 115912
        }
    ],
    "buffers" : [
        {
            "byteLength" : 115924,
            "uri" : "data:application/octet-stream;base64,"
        }
    ]
}
