{
    "asset" : {
        "generator" : "Khronos glTF Blender I/O v1.2.75",
        "version" : "2.0"
    },
    "scene" : 0,
    "scenes" : [
        {
            "name" : "Scene",
            "nodes" : [
                0,
                1
            ]
        }
    ],
    "nodes" : [
        {
            "mesh" : 0,
            "name" : "ergonomic-chair",
            "rotation" : [
                -0.08960549533367157,
                -0.0024606920778751373,
                -0.0015324936248362064,
                0.9959731101989746
            ],
            "scale" : [
                0.04216514900326729,
                0.8742241263389587,
                0.5931230783462524
            ],
            "translation" : [
                0.2754897177219391,
                0.44308048486709595,
                0.10729634761810303
            ]
        },
        {
            "mesh" : 1,
            "name" : "occupied",
            "scale" : [
                0.4257882535457611,
                0.4257882535457611,
                0.4257882535457611
            ]
        }
    ],
    "materials" : [
        {
            "doubleSided" : true,
            "emissiveFactor" : [
                0,
                0,
                0
            ],
            "name" : "black-metal-material.003",
            "pbrMetallicRoughness" : {
                "baseColorFactor" : [
                    0,
                    0,
                    0,
                    1
                ],
                "metallicFactor" : 0,
                "roughnessFactor" : 1
            }
        },
        {
            "doubleSided" : true,
            "emissiveFactor" : [
                0,
                0,
                0
            ],
            "name" : "black-metal-material.002",
            "pbrMetallicRoughness" : {
                "baseColorFactor" : [
                    0,
                    0,
                    0,
                    1
                ],
                "metallicFactor" : 0,
                "roughnessFactor" : 1
            }
        },
        {
            "doubleSided" : true,
            "emissiveFactor" : [
                0,
                0,
                0
            ],
            "name" : "transparent.002",
            "pbrMetallicRoughness" : {
                "baseColorFactor" : [
                    0.800000011920929,
                    0.800000011920929,
                    0.800000011920929,
                    0
                ],
                "metallicFactor" : 0,
                "roughnessFactor" : 0.5
            }
        }
    ],
    "meshes" : [
        {
            "name" : "Plane.025",
            "primitives" : [
                {
                    "attributes" : {
                        "POSITION" : 0,
                        "NORMAL" : 1,
                        "TEXCOORD_0" : 2
                    },
                    "indices" : 3,
                    "material" : 0
                },
                {
                    "attributes" : {
                        "POSITION" : 4,
                        "NORMAL" : 5,
                        "TEXCOORD_0" : 6
                    },
                    "indices" : 7,
                    "material" : 1
                }
            ]
        },
        {
            "name" : "Plane.028",
            "primitives" : [
                {
                    "attributes" : {
                        "POSITION" : 8,
                        "NORMAL" : 9,
                        "TEXCOORD_0" : 10
                    },
                    "indices" : 11,
                    "material" : 2
                }
            ]
        }
    ],
    "accessors" : [
        {
            "bufferView" : 0,
            "componentType" : 5126,
            "count" : 8000,
            "max" : [
                0.6772234439849854,
                0.9450920224189758,
                0.3546413481235504
            ],
            "min" : [
                -14.542787551879883,
                -0.32163190841674805,
                -0.5427091717720032
            ],
            "type" : "VEC3"
        },
        {
            "bufferView" : 1,
            "componentType" : 5126,
            "count" : 8000,
            "type" : "VEC3"
        },
        {
            "bufferView" : 2,
            "componentType" : 5126,
            "count" : 8000,
            "type" : "VEC2"
        },
        {
            "bufferView" : 3,
            "componentType" : 5123,
            "count" : 12036,
            "type" : "SCALAR"
        },
        {
            "bufferView" : 4,
            "componentType" : 5126,
            "count" : 1176,
            "max" : [
                2.8392181396484375,
                -0.25233903527259827,
                0.3012651801109314
            ],
            "min" : [
                -12.588678359985352,
                -0.5442729592323303,
                -0.9341168999671936
            ],
            "type" : "VEC3"
        },
        {
            "bufferView" : 5,
            "componentType" : 5126,
            "count" : 1176,
            "type" : "VEC3"
        },
        {
            "bufferView" : 6,
            "componentType" : 5126,
            "count" : 1176,
            "type" : "VEC2"
        },
        {
            "bufferView" : 7,
            "componentType" : 5123,
            "count" : 2124,
            "type" : "SCALAR"
        },
        {
            "bufferView" : 8,
            "componentType" : 5126,
            "count" : 4,
            "max" : [
                1,
                0,
                1
            ],
            "min" : [
                -1,
                0,
                -1
            ],
            "type" : "VEC3"
        },
        {
            "bufferView" : 9,
            "componentType" : 5126,
            "count" : 4,
            "type" : "VEC3"
        },
        {
            "bufferView" : 10,
            "componentType" : 5126,
            "count" : 4,
            "type" : "VEC2"
        },
        {
            "bufferView" : 11,
            "componentType" : 5123,
            "count" : 6,
            "type" : "SCALAR"
        }
    ],
    "bufferViews" : [
        {
            "buffer" : 0,
            "byteLength" : 96000,
            "byteOffset" : 0
        },
        {
            "buffer" : 0,
            "byteLength" : 96000,
            "byteOffset" : 96000
        },
        {
            "buffer" : 0,
            "byteLength" : 64000,
            "byteOffset" : 192000
        },
        {
            "buffer" : 0,
            "byteLength" : 24072,
            "byteOffset" : 256000
        },
        {
            "buffer" : 0,
            "byteLength" : 14112,
            "byteOffset" : 280072
        },
        {
            "buffer" : 0,
            "byteLength" : 14112,
            "byteOffset" : 294184
        },
        {
            "buffer" : 0,
            "byteLength" : 9408,
            "byteOffset" : 308296
        },
        {
            "buffer" : 0,
            "byteLength" : 4248,
            "byteOffset" : 317704
        },
        {
            "buffer" : 0,
            "byteLength" : 48,
            "byteOffset" : 321952
        },
        {
            "buffer" : 0,
            "byteLength" : 48,
            "byteOffset" : 322000
        },
        {
            "buffer" : 0,
            "byteLength" : 32,
            "byteOffset" : 322048
        },
        {
            "buffer" : 0,
            "byteLength" : 12,
            "byteOffset" : 322080
        }
    ],
    "buffers" : [
        {
            "byteLength" : 322092,
            "uri" : "data:application/octet-stream;base64,"
        }
    ]
}
