{
    "asset" : {
        "generator" : "Khronos glTF Blender I/O v1.2.75",
        "version" : "2.0"
    },
    "scene" : 0,
    "scenes" : [
        {
            "name" : "Scene",
            "nodes" : [
                0,
                1
            ]
        }
    ],
    "nodes" : [
        {
            "mesh" : 0,
            "name" : "laptop",
            "rotation" : [
                0,
                -0.9999999403953552,
                0,
                0.0002781907678581774
            ],
            "translation" : [
                -0.0006358249229378998,
                0.026124753057956696,
                -0.08520055562257767
            ]
        },
        {
            "mesh" : 1,
            "name" : "occupied",
            "scale" : [
                0.18155962228775024,
                0.1272934079170227,
                0.1272934079170227
            ],
            "translation" : [
                0,
                0,
                -0.022495882585644722
            ]
        }
    ],
    "materials" : [
        {
            "doubleSided" : true,
            "emissiveFactor" : [
                0,
                0,
                0
            ],
            "name" : "keyboard-material.001",
            "pbrMetallicRoughness" : {
                "baseColorFactor" : [
                    0.06184989959001541,
                    0.07345680147409439,
                    0.08713532239198685,
                    1
                ],
                "metallicFactor" : 0,
                "roughnessFactor" : 0.6048387289047241
            }
        },
        {
            "doubleSided" : true,
            "emissiveFactor" : [
                0,
                0,
                0
            ],
            "name" : "monitor-material.001",
            "pbrMetallicRoughness" : {
                "baseColorFactor" : [
                    0.010021871887147427,
                    0.010021871887147427,
                    0.010021871887147427,
                    1
                ],
                "metallicFactor" : 0,
                "roughnessFactor" : 0.5
            }
        },
        {
            "doubleSided" : true,
            "emissiveFactor" : [
                0,
                0,
                0
            ],
            "name" : "gray-aluminum.001",
            "pbrMetallicRoughness" : {
                "baseColorFactor" : [
                    0.6382709741592407,
                    0.6382709741592407,
                    0.6382709741592407,
                    1
                ],
                "metallicFactor" : 0,
                "roughnessFactor" : 0.5666666626930237
            }
        }
    ],
    "meshes" : [
        {
            "name" : "Plane.017",
            "primitives" : [
                {
                    "attributes" : {
                        "POSITION" : 0,
                        "NORMAL" : 1,
                        "TEXCOORD_0" : 2
                    },
                    "indices" : 3,
                    "material" : 0
                },
                {
                    "attributes" : {
                        "POSITION" : 4,
                        "NORMAL" : 5,
                        "TEXCOORD_0" : 6
                    },
                    "indices" : 7,
                    "material" : 1
                },
                {
                    "attributes" : {
                        "POSITION" : 8,
                        "NORMAL" : 9,
                        "TEXCOORD_0" : 10
                    },
                    "indices" : 11,
                    "material" : 2
                }
            ]
        },
        {
            "name" : "Plane.020",
            "primitives" : [
                {
                    "attributes" : {
                        "POSITION" : 12,
                        "NORMAL" : 13,
                        "TEXCOORD_0" : 14
                    },
                    "indices" : 15
                }
            ]
        }
    ],
    "accessors" : [
        {
            "bufferView" : 0,
            "componentType" : 5126,
            "count" : 20,
            "max" : [
                0.05121583491563797,
                0,
                0.03777182474732399
            ],
            "min" : [
                -0.05121583491563797,
                0,
                -0.03777182474732399
            ],
            "type" : "VEC3"
        },
        {
            "bufferView" : 1,
            "componentType" : 5126,
            "count" : 20,
            "type" : "VEC3"
        },
        {
            "bufferView" : 2,
            "componentType" : 5126,
            "count" : 20,
            "type" : "VEC2"
        },
        {
            "bufferView" : 3,
            "componentType" : 5123,
            "count" : 54,
            "type" : "SCALAR"
        },
        {
            "bufferView" : 4,
            "componentType" : 5126,
            "count" : 3364,
            "max" : [
                0.16209642589092255,
                0.21453246474266052,
                -0.05750911682844162
            ],
            "min" : [
                -0.16387037932872772,
                -0.014062665402889252,
                -0.21048331260681152
            ],
            "type" : "VEC3"
        },
        {
            "bufferView" : 5,
            "componentType" : 5126,
            "count" : 3364,
            "type" : "VEC3"
        },
        {
            "bufferView" : 6,
            "componentType" : 5126,
            "count" : 3364,
            "type" : "VEC2"
        },
        {
            "bufferView" : 7,
            "componentType" : 5123,
            "count" : 5886,
            "type" : "SCALAR"
        },
        {
            "bufferView" : 8,
            "componentType" : 5126,
            "count" : 184,
            "max" : [
                0.16947244107723236,
                0.21965846419334412,
                2.157749652862549
            ],
            "min" : [
                -0.3071715831756592,
                -0.9701964259147644,
                -0.2152184695005417
            ],
            "type" : "VEC3"
        },
        {
            "bufferView" : 9,
            "componentType" : 5126,
            "count" : 184,
            "type" : "VEC3"
        },
        {
            "bufferView" : 10,
            "componentType" : 5126,
            "count" : 184,
            "type" : "VEC2"
        },
        {
            "bufferView" : 11,
            "componentType" : 5123,
            "count" : 336,
            "type" : "SCALAR"
        },
        {
            "bufferView" : 12,
            "componentType" : 5126,
            "count" : 4,
            "max" : [
                1,
                0,
                1
            ],
            "min" : [
                -1,
                0,
                -1
            ],
            "type" : "VEC3"
        },
        {
            "bufferView" : 13,
            "componentType" : 5126,
            "count" : 4,
            "type" : "VEC3"
        },
        {
            "bufferView" : 14,
            "componentType" : 5126,
            "count" : 4,
            "type" : "VEC2"
        },
        {
            "bufferView" : 15,
            "componentType" : 5123,
            "count" : 6,
            "type" : "SCALAR"
        }
    ],
    "bufferViews" : [
        {
            "buffer" : 0,
            "byteLength" : 240,
            "byteOffset" : 0
        },
        {
            "buffer" : 0,
            "byteLength" : 240,
            "byteOffset" : 240
        },
        {
            "buffer" : 0,
            "byteLength" : 160,
            "byteOffset" : 480
        },
        {
            "buffer" : 0,
            "byteLength" : 108,
            "byteOffset" : 640
        },
        {
            "buffer" : 0,
            "byteLength" : 40368,
            "byteOffset" : 748
        },
        {
            "buffer" : 0,
            "byteLength" : 40368,
            "byteOffset" : 41116
        },
        {
            "buffer" : 0,
            "byteLength" : 26912,
            "byteOffset" : 81484
        },
        {
            "buffer" : 0,
            "byteLength" : 11772,
            "byteOffset" : 108396
        },
        {
            "buffer" : 0,
            "byteLength" : 2208,
            "byteOffset" : 120168
        },
        {
            "buffer" : 0,
            "byteLength" : 2208,
            "byteOffset" : 122376
        },
        {
            "buffer" : 0,
            "byteLength" : 1472,
            "byteOffset" : 124584
        },
        {
            "buffer" : 0,
            "byteLength" : 672,
            "byteOffset" : 126056
        },
        {
            "buffer" : 0,
            "byteLength" : 48,
            "byteOffset" : 126728
        },
        {
            "buffer" : 0,
            "byteLength" : 48,
            "byteOffset" : 126776
        },
        {
            "buffer" : 0,
            "byteLength" : 32,
            "byteOffset" : 126824
        },
        {
            "buffer" : 0,
            "byteLength" : 12,
            "byteOffset" : 126856
        }
    ],
    "buffers" : [
        {
            "byteLength" : 126868,
            "uri" : "data:application/octet-stream;base64,"
        }
    ]
}
