{
    "asset" : {
        "generator" : "Khronos glTF Blender I/O v1.2.75",
        "version" : "2.0"
    },
    "scene" : 0,
    "scenes" : [
        {
            "name" : "Scene",
            "nodes" : [
                0,
                1
            ]
        }
    ],
    "nodes" : [
        {
            "mesh" : 0,
            "name" : "monitor-body",
            "rotation" : [
                0,
                0.7071067094802856,
                -0.7071068286895752,
                -1.1520230458472724e-07
            ],
            "scale" : [
                1.529403567314148,
                1.529403567314148,
                1.529403567314148
            ]
        },
        {
            "mesh" : 1,
            "name" : "occupied",
            "scale" : [
                0.2421858310699463,
                0.1523587852716446,
                0.1523587852716446
            ]
        }
    ],
    "materials" : [
        {
            "doubleSided" : true,
            "emissiveFactor" : [
                0,
                0,
                0
            ],
            "name" : "black-metal-material",
            "pbrMetallicRoughness" : {
                "baseColorFactor" : [
                    0,
                    0,
                    0,
                    1
                ],
                "metallicFactor" : 0,
                "roughnessFactor" : 1
            }
        },
        {
            "doubleSided" : true,
            "emissiveFactor" : [
                0,
                0,
                0
            ],
            "name" : "monitor-material.002",
            "pbrMetallicRoughness" : {
                "baseColorFactor" : [
                    0.010021871887147427,
                    0.010021871887147427,
                    0.010021871887147427,
                    1
                ],
                "metallicFactor" : 0,
                "roughnessFactor" : 0.5
            }
        },
        {
            "doubleSided" : true,
            "emissiveFactor" : [
                0,
                0,
                0
            ],
            "name" : "00 1",
            "pbrMetallicRoughness" : {
                "baseColorFactor" : [
                    0.517326831817627,
                    0.517326831817627,
                    0.517326831817627,
                    1
                ],
                "metallicFactor" : 0,
                "roughnessFactor" : 1
            }
        },
        {
            "doubleSided" : true,
            "emissiveFactor" : [
                0,
                0,
                0
            ],
            "name" : "transparent",
            "pbrMetallicRoughness" : {
                "baseColorFactor" : [
                    0.800000011920929,
                    0.800000011920929,
                    0.800000011920929,
                    0
                ],
                "metallicFactor" : 0,
                "roughnessFactor" : 0.5
            }
        }
    ],
    "meshes" : [
        {
            "name" : "computer_screen_Cube.009",
            "primitives" : [
                {
                    "attributes" : {
                        "POSITION" : 0,
                        "NORMAL" : 1,
                        "TEXCOORD_0" : 2
                    },
                    "indices" : 3,
                    "material" : 0
                },
                {
                    "attributes" : {
                        "POSITION" : 4,
                        "NORMAL" : 5,
                        "TEXCOORD_0" : 6
                    },
                    "indices" : 7,
                    "material" : 1
                },
                {
                    "attributes" : {
                        "POSITION" : 8,
                        "NORMAL" : 9,
                        "TEXCOORD_0" : 10
                    },
                    "indices" : 11,
                    "material" : 2
                }
            ]
        },
        {
            "name" : "Plane.021",
            "primitives" : [
                {
                    "attributes" : {
                        "POSITION" : 12,
                        "NORMAL" : 13,
                        "TEXCOORD_0" : 14
                    },
                    "indices" : 15,
                    "material" : 3
                }
            ]
        }
    ],
    "accessors" : [
        {
            "bufferView" : 0,
            "componentType" : 5126,
            "count" : 438,
            "max" : [
                0.08749999850988388,
                0.08749999850988388,
                0
            ],
            "min" : [
                -0.08749999850988388,
                -0.08749999850988388,
                -0.10499399900436401
            ],
            "type" : "VEC3"
        },
        {
            "bufferView" : 1,
            "componentType" : 5126,
            "count" : 438,
            "type" : "VEC3"
        },
        {
            "bufferView" : 2,
            "componentType" : 5126,
            "count" : 438,
            "type" : "VEC2"
        },
        {
            "bufferView" : 3,
            "componentType" : 5123,
            "count" : 1257,
            "type" : "SCALAR"
        },
        {
            "bufferView" : 4,
            "componentType" : 5126,
            "count" : 208,
            "max" : [
                0.3923097848892212,
                0.0545843243598938,
                -0.03421555459499359
            ],
            "min" : [
                -0.39230984449386597,
                -0.004729606211185455,
                -0.3284479081630707
            ],
            "type" : "VEC3"
        },
        {
            "bufferView" : 5,
            "componentType" : 5126,
            "count" : 208,
            "type" : "VEC3"
        },
        {
            "bufferView" : 6,
            "componentType" : 5126,
            "count" : 208,
            "type" : "VEC2"
        },
        {
            "bufferView" : 7,
            "componentType" : 5123,
            "count" : 408,
            "type" : "SCALAR"
        },
        {
            "bufferView" : 8,
            "componentType" : 5126,
            "count" : 40,
            "max" : [
                0.38260912895202637,
                0.0542871318757534,
                -0.04093541204929352
            ],
            "min" : [
                -0.38260918855667114,
                0.010020200163125992,
                -0.32172805070877075
            ],
            "type" : "VEC3"
        },
        {
            "bufferView" : 9,
            "componentType" : 5126,
            "count" : 40,
            "type" : "VEC3"
        },
        {
            "bufferView" : 10,
            "componentType" : 5126,
            "count" : 40,
            "type" : "VEC2"
        },
        {
            "bufferView" : 11,
            "componentType" : 5123,
            "count" : 60,
            "type" : "SCALAR"
        },
        {
            "bufferView" : 12,
            "componentType" : 5126,
            "count" : 4,
            "max" : [
                1,
                0,
                1
            ],
            "min" : [
                -1,
                0,
                -1
            ],
            "type" : "VEC3"
        },
        {
            "bufferView" : 13,
            "componentType" : 5126,
            "count" : 4,
            "type" : "VEC3"
        },
        {
            "bufferView" : 14,
            "componentType" : 5126,
            "count" : 4,
            "type" : "VEC2"
        },
        {
            "bufferView" : 15,
            "componentType" : 5123,
            "count" : 6,
            "type" : "SCALAR"
        }
    ],
    "bufferViews" : [
        {
            "buffer" : 0,
            "byteLength" : 5256,
            "byteOffset" : 0
        },
        {
            "buffer" : 0,
            "byteLength" : 5256,
            "byteOffset" : 5256
        },
        {
            "buffer" : 0,
            "byteLength" : 3504,
            "byteOffset" : 10512
        },
        {
            "buffer" : 0,
            "byteLength" : 2514,
            "byteOffset" : 14016
        },
        {
            "buffer" : 0,
            "byteLength" : 2496,
            "byteOffset" : 16532
        },
        {
            "buffer" : 0,
            "byteLength" : 2496,
            "byteOffset" : 19028
        },
        {
            "buffer" : 0,
            "byteLength" : 1664,
            "byteOffset" : 21524
        },
        {
            "buffer" : 0,
            "byteLength" : 816,
            "byteOffset" : 23188
        },
        {
            "buffer" : 0,
            "byteLength" : 480,
            "byteOffset" : 24004
        },
        {
            "buffer" : 0,
            "byteLength" : 480,
            "byteOffset" : 24484
        },
        {
            "buffer" : 0,
            "byteLength" : 320,
            "byteOffset" : 24964
        },
        {
            "buffer" : 0,
            "byteLength" : 120,
            "byteOffset" : 25284
        },
        {
            "buffer" : 0,
            "byteLength" : 48,
            "byteOffset" : 25404
        },
        {
            "buffer" : 0,
            "byteLength" : 48,
            "byteOffset" : 25452
        },
        {
            "buffer" : 0,
            "byteLength" : 32,
            "byteOffset" : 25500
        },
        {
            "buffer" : 0,
            "byteLength" : 12,
            "byteOffset" : 25532
        }
    ],
    "buffers" : [
        {
            "byteLength" : 25544,
            "uri" : "data:application/octet-stream;base64,"
        }
    ]
}
