{
    "asset" : {
        "generator" : "Khronos glTF Blender I/O v1.2.75",
        "version" : "2.0"
    },
    "scene" : 0,
    "scenes" : [
        {
            "name" : "Scene",
            "nodes" : [
                0,
                1
            ]
        }
    ],
    "nodes" : [
        {
            "mesh" : 0,
            "name" : "monitor-body",
            "rotation" : [
                0,
                0.7071067094802856,
                -0.7071068286895752,
                -1.1520230458472724e-07
            ]
        },
        {
            "mesh" : 1,
            "name" : "occupied",
            "scale" : [
                0.10921269655227661,
                0.10921269655227661,
                0.10921269655227661
            ]
        }
    ],
    "materials" : [
        {
            "doubleSided" : true,
            "emissiveFactor" : [
                0,
                0,
                0
            ],
            "name" : "black-metal-material",
            "pbrMetallicRoughness" : {
                "baseColorFactor" : [
                    0,
                    0,
                    0,
                    1
                ],
                "metallicFactor" : 0,
                "roughnessFactor" : 1
            }
        }
    ],
    "meshes" : [
        {
            "name" : "computer_screen_Cube.009",
            "primitives" : [
                {
                    "attributes" : {
                        "POSITION" : 0,
                        "NORMAL" : 1,
                        "TEXCOORD_0" : 2
                    },
                    "indices" : 3,
                    "material" : 0
                }
            ]
        },
        {
            "name" : "Plane.021",
            "primitives" : [
                {
                    "attributes" : {
                        "POSITION" : 4,
                        "NORMAL" : 5,
                        "TEXCOORD_0" : 6
                    },
                    "indices" : 7
                }
            ]
        }
    ],
    "accessors" : [
        {
            "bufferView" : 0,
            "componentType" : 5126,
            "count" : 1061,
            "max" : [
                0.25699999928474426,
                0.08749999850988388,
                0
            ],
            "min" : [
                -0.25699999928474426,
                -0.08749999850988388,
                -0.37495800852775574
            ],
            "type" : "VEC3"
        },
        {
            "bufferView" : 1,
            "componentType" : 5126,
            "count" : 1061,
            "type" : "VEC3"
        },
        {
            "bufferView" : 2,
            "componentType" : 5126,
            "count" : 1061,
            "type" : "VEC2"
        },
        {
            "bufferView" : 3,
            "componentType" : 5123,
            "count" : 3006,
            "type" : "SCALAR"
        },
        {
            "bufferView" : 4,
            "componentType" : 5126,
            "count" : 4,
            "max" : [
                1,
                0,
                1
            ],
            "min" : [
                -1,
                0,
                -1
            ],
            "type" : "VEC3"
        },
        {
            "bufferView" : 5,
            "componentType" : 5126,
            "count" : 4,
            "type" : "VEC3"
        },
        {
            "bufferView" : 6,
            "componentType" : 5126,
            "count" : 4,
            "type" : "VEC2"
        },
        {
            "bufferView" : 7,
            "componentType" : 5123,
            "count" : 6,
            "type" : "SCALAR"
        }
    ],
    "bufferViews" : [
        {
            "buffer" : 0,
            "byteLength" : 12732,
            "byteOffset" : 0
        },
        {
            "buffer" : 0,
            "byteLength" : 12732,
            "byteOffset" : 12732
        },
        {
            "buffer" : 0,
            "byteLength" : 8488,
            "byteOffset" : 25464
        },
        {
            "buffer" : 0,
            "byteLength" : 6012,
            "byteOffset" : 33952
        },
        {
            "buffer" : 0,
            "byteLength" : 48,
            "byteOffset" : 39964
        },
        {
            "buffer" : 0,
            "byteLength" : 48,
            "byteOffset" : 40012
        },
        {
            "buffer" : 0,
            "byteLength" : 32,
            "byteOffset" : 40060
        },
        {
            "buffer" : 0,
            "byteLength" : 12,
            "byteOffset" : 40092
        }
    ],
    "buffers" : [
        {
            "byteLength" : 40104,
            "uri" : "data:application/octet-stream;base64,"
        }
    ]
}
