{
    "asset" : {
        "generator" : "Khronos glTF Blender I/O v1.2.75",
        "version" : "2.0"
    },
    "scene" : 0,
    "scenes" : [
        {
            "name" : "Scene",
            "nodes" : [
                0,
                1,
                2,
                3,
                4,
                5,
                6
            ]
        }
    ],
    "nodes" : [
        {
            "name" : "Light",
            "rotation" : [
                0.4149390161037445,
                0.8070564866065979,
                -0.41992321610450745,
                0.0122457817196846
            ],
            "translation" : [
                6.692307472229004,
                4.227219104766846,
                -6.571563720703125
            ]
        },
        {
            "name" : "Camera",
            "rotation" : [
                0.2420247495174408,
                0.7126768827438354,
                -0.588962197303772,
                0.29434528946876526
            ],
            "translation" : [
                5.019999980926514,
                3.0399999618530273,
                -5.110000133514404
            ]
        },
        {
            "name" : "Area",
            "translation" : [
                0.001536250114440918,
                5.701056003570557,
                -0.041916608810424805
            ]
        },
        {
            "name" : "Camera.001",
            "rotation" : [
                0.3218768835067749,
                0.6540390849113464,
                -0.3625391125679016,
                0.580683708190918
            ],
            "translation" : [
                4.713040351867676,
                4.558589935302734,
                -4.537395000457764
            ]
        },
        {
            "mesh" : 0,
            "name" : "monitor-stand",
            "scale" : [
                0.3821497857570648,
                0.06402020901441574,
                0.08025318384170532
            ],
            "translation" : [
                0,
                0.06538162380456924,
                0
            ]
        },
        {
            "mesh" : 1,
            "name" : "slot-0",
            "scale" : [
                -0.4685867130756378,
                -0.06216990947723389,
                -0.07563590258359909
            ],
            "translation" : [
                0,
                0.12940183281898499,
                0
            ]
        },
        {
            "mesh" : 2,
            "name" : "occupied",
            "scale" : [
                -0.4685867130756378,
                -0.06216990947723389,
                -0.07563590258359909
            ],
            "translation" : [
                0,
                0.0003002118319272995,
                0
            ]
        }
    ],
    "materials" : [
        {
            "doubleSided" : true,
            "emissiveFactor" : [
                0,
                0,
                0
            ],
            "name" : "desktop-material.001",
            "pbrMetallicRoughness" : {
                "baseColorFactor" : [
                    0.5127609968185425,
                    0.16040654480457306,
                    0.019763721153140068,
                    1
                ],
                "metallicFactor" : 0.09868421405553818,
                "roughnessFactor" : 0.6673640012741089
            }
        },
        {
            "doubleSided" : true,
            "emissiveFactor" : [
                0,
                0,
                0
            ],
            "name" : "dark-green-plastic",
            "pbrMetallicRoughness" : {
                "baseColorFactor" : [
                    0.06301002949476242,
                    0.13286834955215454,
                    0.061246056109666824,
                    1
                ],
                "metallicFactor" : 0,
                "roughnessFactor" : 1
            }
        }
    ],
    "meshes" : [
        {
            "name" : "Cube.055",
            "primitives" : [
                {
                    "attributes" : {
                        "POSITION" : 0,
                        "NORMAL" : 1,
                        "TEXCOORD_0" : 2
                    },
                    "indices" : 3,
                    "material" : 0
                }
            ]
        },
        {
            "name" : "Plane.016",
            "primitives" : [
                {
                    "attributes" : {
                        "POSITION" : 4,
                        "NORMAL" : 5,
                        "TEXCOORD_0" : 6
                    },
                    "indices" : 7
                }
            ]
        },
        {
            "name" : "Plane.018",
            "primitives" : [
                {
                    "attributes" : {
                        "POSITION" : 8,
                        "NORMAL" : 9,
                        "TEXCOORD_0" : 10
                    },
                    "indices" : 7,
                    "material" : 1
                }
            ]
        }
    ],
    "accessors" : [
        {
            "bufferView" : 0,
            "componentType" : 5126,
            "count" : 104,
            "max" : [
                1.2616775035858154,
                1,
                1
            ],
            "min" : [
                -1.2616775035858154,
                -1,
                -1
            ],
            "type" : "VEC3"
        },
        {
            "bufferView" : 1,
            "componentType" : 5126,
            "count" : 104,
            "type" : "VEC3"
        },
        {
            "bufferView" : 2,
            "componentType" : 5126,
            "count" : 104,
            "type" : "VEC2"
        },
        {
            "bufferView" : 3,
            "componentType" : 5123,
            "count" : 192,
            "type" : "SCALAR"
        },
        {
            "bufferView" : 4,
            "componentType" : 5126,
            "count" : 4,
            "max" : [
                1,
                0,
                1
            ],
            "min" : [
                -1,
                0,
                -1
            ],
            "type" : "VEC3"
        },
        {
            "bufferView" : 5,
            "componentType" : 5126,
            "count" : 4,
            "type" : "VEC3"
        },
        {
            "bufferView" : 6,
            "componentType" : 5126,
            "count" : 4,
            "type" : "VEC2"
        },
        {
            "bufferView" : 7,
            "componentType" : 5123,
            "count" : 6,
            "type" : "SCALAR"
        },
        {
            "bufferView" : 8,
            "componentType" : 5126,
            "count" : 4,
            "max" : [
                1,
                0,
                1
            ],
            "min" : [
                -1,
                0,
                -1
            ],
            "type" : "VEC3"
        },
        {
            "bufferView" : 9,
            "componentType" : 5126,
            "count" : 4,
            "type" : "VEC3"
        },
        {
            "bufferView" : 10,
            "componentType" : 5126,
            "count" : 4,
            "type" : "VEC2"
        }
    ],
    "bufferViews" : [
        {
            "buffer" : 0,
            "byteLength" : 1248,
            "byteOffset" : 0
        },
        {
            "buffer" : 0,
            "byteLength" : 1248,
            "byteOffset" : 1248
        },
        {
            "buffer" : 0,
            "byteLength" : 832,
            "byteOffset" : 2496
        },
        {
            "buffer" : 0,
            "byteLength" : 384,
            "byteOffset" : 3328
        },
        {
            "buffer" : 0,
            "byteLength" : 48,
            "byteOffset" : 3712
        },
        {
            "buffer" : 0,
            "byteLength" : 48,
            "byteOffset" : 3760
        },
        {
            "buffer" : 0,
            "byteLength" : 32,
            "byteOffset" : 3808
        },
        {
            "buffer" : 0,
            "byteLength" : 12,
            "byteOffset" : 3840
        },
        {
            "buffer" : 0,
            "byteLength" : 48,
            "byteOffset" : 3852
        },
        {
            "buffer" : 0,
            "byteLength" : 48,
            "byteOffset" : 3900
        },
        {
            "buffer" : 0,
            "byteLength" : 32,
            "byteOffset" : 3948
        }
    ],
    "buffers" : [
        {
            "byteLength" : 3980,
            "uri" : "data:application/octet-stream;base64,"
        }
    ]
}
