{
    "asset" : {
        "generator" : "Khronos glTF Blender I/O v1.2.75",
        "version" : "2.0"
    },
    "scene" : 0,
    "scenes" : [
        {
            "name" : "Scene",
            "nodes" : [
                0
            ]
        }
    ],
    "nodes" : [
        {
            "mesh" : 0,
            "name" : "monitor-49inches.001",
            "scale" : [
                600,
                224.99998474121094,
                9.999999046325684
            ],
            "translation" : [
                0,
                0.27728739380836487,
                0
            ]
        }
    ],
    "materials" : [
        {
            "doubleSided" : true,
            "emissiveFactor" : [
                0,
                0,
                0
            ],
            "name" : "monitor-material.001",
            "pbrMetallicRoughness" : {
                "baseColorFactor" : [
                    0.010021871887147427,
                    0.010021871887147427,
                    0.010021871887147427,
                    1
                ],
                "metallicFactor" : 0,
                "roughnessFactor" : 0.5
            }
        },
        {
            "doubleSided" : true,
            "emissiveFactor" : [
                0,
                0,
                0
            ],
            "name" : "34inch-monitor-paper.001",
            "pbrMetallicRoughness" : {
                "baseColorTexture" : {
                    "index" : 0,
                    "texCoord" : 0
                },
                "metallicFactor" : 0,
                "roughnessFactor" : 0.5
            }
        }
    ],
    "meshes" : [
        {
            "name" : "Cube.054",
            "primitives" : [
                {
                    "attributes" : {
                        "POSITION" : 0,
                        "NORMAL" : 1,
                        "TEXCOORD_0" : 2
                    },
                    "indices" : 3,
                    "material" : 0
                },
                {
                    "attributes" : {
                        "POSITION" : 4,
                        "NORMAL" : 5,
                        "TEXCOORD_0" : 6
                    },
                    "indices" : 7,
                    "material" : 1
                }
            ]
        }
    ],
    "textures" : [
        {
            "source" : 0
        }
    ],
    "images" : [
        {
            "bufferView" : 8,
            "mimeType" : "image/png",
            "name" : "wallpaper-monitor"
        }
    ],
    "accessors" : [
        {
            "bufferView" : 0,
            "componentType" : 5126,
            "count" : 446,
            "max" : [
                0.0010000000474974513,
                0.0010000000474974513,
                0.00807146541774273
            ],
            "min" : [
                -0.0010000000474974513,
                -0.0010000000474974513,
                -0.0010000000474974513
            ],
            "type" : "VEC3"
        },
        {
            "bufferView" : 1,
            "componentType" : 5126,
            "count" : 446,
            "type" : "VEC3"
        },
        {
            "bufferView" : 2,
            "componentType" : 5126,
            "count" : 446,
            "type" : "VEC2"
        },
        {
            "bufferView" : 3,
            "componentType" : 5123,
            "count" : 750,
            "type" : "SCALAR"
        },
        {
            "bufferView" : 4,
            "componentType" : 5126,
            "count" : 184,
            "max" : [
                0.000975273025687784,
                0.0009543229243718088,
                0.005815624725073576
            ],
            "min" : [
                -0.000975273025687784,
                -0.0009543229243718088,
                -0.0009545479551889002
            ],
            "type" : "VEC3"
        },
        {
            "bufferView" : 5,
            "componentType" : 5126,
            "count" : 184,
            "type" : "VEC3"
        },
        {
            "bufferView" : 6,
            "componentType" : 5126,
            "count" : 184,
            "type" : "VEC2"
        },
        {
            "bufferView" : 7,
            "componentType" : 5123,
            "count" : 294,
            "type" : "SCALAR"
        }
    ],
    "bufferViews" : [
        {
            "buffer" : 0,
            "byteLength" : 5352,
            "byteOffset" : 0
        },
        {
            "buffer" : 0,
            "byteLength" : 5352,
            "byteOffset" : 5352
        },
        {
            "buffer" : 0,
            "byteLength" : 3568,
            "byteOffset" : 10704
        },
        {
            "buffer" : 0,
            "byteLength" : 1500,
            "byteOffset" : 14272
        },
        {
            "buffer" : 0,
            "byteLength" : 2208,
            "byteOffset" : 15772
        },
        {
            "buffer" : 0,
            "byteLength" : 2208,
            "byteOffset" : 17980
        },
        {
            "buffer" : 0,
            "byteLength" : 1472,
            "byteOffset" : 20188
        },
        {
            "buffer" : 0,
            "byteLength" : 588,
            "byteOffset" : 21660
        },
        {
            "buffer" : 0,
            "byteLength" : 430415,
            "byteOffset" : 22248
        }
    ],
    "buffers" : [
        {
            "byteLength" : 452664,
            "uri" : "data:application/octet-stream;base64,"
        }
    ]
}
